<svg xmlns="http://www.w3.org/2000/svg" width="8.023" height="10.028" viewBox="0 0 8.023 10.028">
  <path id="document-1214244" d="M12.023,5.48a.657.657,0,0,0-.03-.135V5.3a.537.537,0,0,0-.1-.14h0L8.889,2.15h0a.537.537,0,0,0-.14-.1H8.7A.441.441,0,0,0,8.538,2H5.5A1.5,1.5,0,0,0,4,3.5v7.02a1.5,1.5,0,0,0,1.5,1.5h5.014a1.5,1.5,0,0,0,1.5-1.5V5.48ZM9.014,3.71l1.3,1.3h-.8a.5.5,0,0,1-.5-.5Zm2.006,6.814a.5.5,0,0,1-.5.5H5.5a.5.5,0,0,1-.5-.5V3.5A.5.5,0,0,1,5.5,3H8.011v1.5a1.5,1.5,0,0,0,1.5,1.5h1.5Z" transform="translate(-4 -2)" fill="#232227"/>
</svg>
