<svg xmlns="http://www.w3.org/2000/svg" width="16" height="16" viewBox="0 0 16 16"><path d="M9.148,5.262A5.541,5.541,0,0,1,10,5.2c2.543,0,4.934,1.831,6.325,4.8a12.178,12.178,0,0,1-.72,1.311.8.8,0,1,0,1.359.84,12.61,12.61,0,0,0,.968-1.839.8.8,0,0,0,0-.632C16.312,5.925,13.274,3.6,10,3.6a6.213,6.213,0,0,0-1.119.1.811.811,0,1,0,.272,1.6ZM3.367,2.231A.8.8,0,0,0,2.231,3.367L4.71,5.837A11.69,11.69,0,0,0,2.063,9.675a.8.8,0,0,0,0,.64c1.615,3.75,4.654,6.077,7.932,6.077a7.4,7.4,0,0,0,4.038-1.231l2.591,2.6a.8.8,0,1,0,1.135-1.135ZM8.452,9.58l1.959,1.959a1.447,1.447,0,0,1-.416.056A1.6,1.6,0,0,1,8.4,10,1.447,1.447,0,0,1,8.452,9.58ZM10,14.793c-2.543,0-4.934-1.831-6.317-4.8A9.667,9.667,0,0,1,5.837,6.965L7.253,8.4a3.2,3.2,0,0,0,4.342,4.342l1.271,1.255a5.789,5.789,0,0,1-2.871.8Z" transform="translate(-1.996 -1.996)" fill="#828284"/></svg>
