<svg xmlns="http://www.w3.org/2000/svg" width="99.94" height="53.298" viewBox="0 0 99.94 53.298">
  <path id="Path_1" data-name="Path 1" d="M113.283,123.469c3.129-2.826,6.085-5.619,9.175-8.254,3.44-2.932,7.122-5.512,11.583-6.717,3.64-.984,5.51-.392,7.542,2.807,1.583,2.491,2.893,5.155,4.337,7.736a25.9,25.9,0,0,0,4.313,5.715c2.811,2.808,6.18,3.217,9.778,2.177,4.784-1.383,8.55-4.512,12.325-7.579a5.9,5.9,0,0,1,2.69-1.606,3.528,3.528,0,0,1,4.15,2.173c.654,1.674.543,3.532-1.113,4.552-6.168,3.8-12.411,7.544-19.441,9.538-6.805,1.93-12.283-.543-16.653-5.812a46.142,46.142,0,0,1-6.728-10.956c-.713-1.623-1.4-1.771-2.861-.737-4.679,3.307-8.752,7.318-13.1,11.01a39.208,39.208,0,0,1-6.837,4.893c-1.934,1.032-3.907,1.38-5.743-.082a6.033,6.033,0,0,1-2.138-5.678c.166-1.6.448-3.178.753-5.281-1.9,1.443-3.405,2.626-4.952,3.756a111.706,111.706,0,0,1-13.389,8.429c-4.237,2.259-7.675-.487-7.346-4.957.392-5.321,2.195-10.3,3.528-15.382,2.44-9.3,5.089-18.555,7.619-27.836.527-1.933,1.237-3.634,3.514-3.963,3.1-.446,5.191,2.087,4.344,5.242Q95.268,99.192,91.9,111.726c-1.1,4.116-2.14,8.247-3.317,12.794a96.377,96.377,0,0,0,10.2-7,53.413,53.413,0,0,1,7.477-5.119,11.2,11.2,0,0,1,2.117-.908c3.6-1.132,5.893.536,5.7,4.268C113.952,118.276,113.571,120.774,113.283,123.469Z" transform="translate(-79.609 -81.364)" fill="#3848e9"/>
</svg>
