<svg xmlns="http://www.w3.org/2000/svg" xmlns:xlink="http://www.w3.org/1999/xlink" width="34" height="38" viewBox="0 0 34 38">
  <defs>
    <filter id="location-1214139" x="0" y="0" width="34" height="38" filterUnits="userSpaceOnUse">
      <feOffset dy="3" input="SourceAlpha"/>
      <feGaussianBlur stdDeviation="3" result="blur"/>
      <feFlood flood-opacity="0.306"/>
      <feComposite operator="in" in2="blur"/>
      <feComposite in="SourceGraphic"/>
    </filter>
  </defs>
  <g transform="matrix(1, 0, 0, 1, 0, 0)" filter="url(#location-1214139)">
    <path id="location-1214139-2" data-name="location-1214139" d="M12,2a8,8,0,0,0-8,8c0,5.4,7.05,11.5,7.35,11.76a1,1,0,0,0,1.3,0C13,21.5,20,15.4,20,10A8,8,0,0,0,12,2Zm0,17.65c-2.13-2-6-6.31-6-9.65a6,6,0,1,1,12,0C18,13.34,14.13,17.66,12,19.65ZM12,6a4,4,0,1,0,4,4A4,4,0,0,0,12,6Zm0,6a2,2,0,1,1,2-2A2,2,0,0,1,12,12Z" transform="translate(5 4)" fill="#3848e9"/>
  </g>
</svg>
