<svg xmlns="http://www.w3.org/2000/svg" width="16" height="15.2" viewBox="0 0 16 15.2">
  <path id="medical-folder-1214217" d="M11.6,10.5h-.8V9.7a.8.8,0,1,0-1.6,0v.8H8.4a.8.8,0,0,0,0,1.6h.8v.8a.8.8,0,1,0,1.6,0v-.8h.8a.8.8,0,0,0,0-1.6Zm4-5.6H10.576l-.256-.8A2.4,2.4,0,0,0,8.048,2.5H4.4A2.4,2.4,0,0,0,2,4.9V15.3a2.4,2.4,0,0,0,2.4,2.4H15.6A2.4,2.4,0,0,0,18,15.3v-8A2.4,2.4,0,0,0,15.6,4.9Zm.8,10.4a.8.8,0,0,1-.8.8H4.4a.8.8,0,0,1-.8-.8V4.9a.8.8,0,0,1,.8-.8H8.048a.8.8,0,0,1,.76.544L9.24,5.956A.8.8,0,0,0,10,6.5h5.6a.8.8,0,0,1,.8.8Z" transform="translate(-2 -2.5)" fill="#828284"/>
</svg>
