<svg xmlns="http://www.w3.org/2000/svg" width="68.918" height="81.615" viewBox="0 0 68.918 81.615"><g transform="translate(0 0)" opacity="0.354"><g transform="translate(0 0)"><path d="M54.494,966.362c3.574.079,21.96,1.971,28.213,19.7,3.753,12.122-3.482,24.287-7.008,33.037-2.4,5.968-.919,13-.919,13,0,.706.575,4.076.919,7.014a17.578,17.578,0,0,1,.141,4.392,5.531,5.531,0,0,1-.919,2.55,4.766,4.766,0,0,1-3.534,1.913H46.506a3.15,3.15,0,0,1-2.863-1.523,3.514,3.514,0,0,1-.459-.85,6.447,6.447,0,0,1-.283-1.027c-.151-.641-.271-1.349-.389-2.125-.236-1.552-.449-3.287-.53-4.534a3.721,3.721,0,0,0-.672-2.019.806.806,0,0,0-.848-.39c-1.49,0-6.318,1.027-10.85,1.134h-.071a8.177,8.177,0,0,1-4.807-1.488,8.765,8.765,0,0,1-2.9-3.9c-1.174-2.958-7-16.608-7-18.42a5.487,5.487,0,0,1,1.449-3.826c.629-.97,4.172-6.448,4.206-16.578a24.188,24.188,0,0,1,7.21-17.109c5.332-5.274,13.971-8.962,26.719-8.962Z" transform="translate(-14.84 -966.362)" fill="#b8a7c1"/></g></g></svg>