<svg width="0" height="0" class="hidden">
    <symbol xmlns="http://www.w3.org/2000/svg" viewBox="0 0 12.8 16" id="clipboard">
        <path d="M12.8,11.6H8a.8.8,0,0,0,0,1.6h4.8a.8.8,0,0,0,0-1.6Zm0-3.2H9.6a.8.8,0,0,0,0,1.6h3.2a.8.8,0,1,0,0-1.6Zm1.6-4.8h-.944A2.4,2.4,0,0,0,11.2,2H9.6A2.4,2.4,0,0,0,7.344,3.6H6.4A2.4,2.4,0,0,0,4,6v9.6A2.4,2.4,0,0,0,6.4,18h8a2.4,2.4,0,0,0,2.4-2.4V6a2.4,2.4,0,0,0-2.4-2.4Zm-5.6.8a.8.8,0,0,1,.8-.8h1.6a.8.8,0,0,1,.8.8v.8H8.8Zm6.4,11.2a.8.8,0,0,1-.8.8h-8a.8.8,0,0,1-.8-.8V6a.8.8,0,0,1,.8-.8h.8V6a.8.8,0,0,0,.8.8h4.8a.8.8,0,0,0,.8-.8V5.2h.8a.8.8,0,0,1,.8.8Z" transform="translate(-4 -2)"></path>
    </symbol>
    <symbol xmlns="http://www.w3.org/2000/svg" viewBox="0 0 16 16" id="contact">
        <path d="M456.364,38H446.182A2.3,2.3,0,0,1,444,35.6V24.4a2.3,2.3,0,0,1,2.182-2.4h10.182a2.3,2.3,0,0,1,2.182,2.4v.8h.727a.8.8,0,0,1,0,1.6h-.727v6.4h.727a.8.8,0,0,1,0,1.6h-.727v.8A2.3,2.3,0,0,1,456.364,38ZM446.182,23.6a.768.768,0,0,0-.728.8V35.6a.767.767,0,0,0,.728.8h6.351v.009H454.5V36.4h1.864a.767.767,0,0,0,.727-.8v-.8h-.727a.8.8,0,0,1,0-1.6h.727V26.8h-.727a.8.8,0,0,1,0-1.6h.727v-.8a.767.767,0,0,0-.727-.8h-2.183v.006h-.44V23.6Z" transform="translate(-444 -22)"></path>
    </symbol>
    <symbol xmlns="http://www.w3.org/2000/svg" viewBox="0 0 16 16" id="date">
        <path d="M15.6,3.6H14V2.8a.8.8,0,1,0-1.6,0v.8H7.6V2.8A.8.8,0,1,0,6,2.8v.8H4.4A2.4,2.4,0,0,0,2,6v9.6A2.4,2.4,0,0,0,4.4,18H15.6A2.4,2.4,0,0,0,18,15.6V6a2.4,2.4,0,0,0-2.4-2.4Zm.8,12a.8.8,0,0,1-.8.8H4.4a.8.8,0,0,1-.8-.8V10H16.4Zm0-7.2H3.6V6a.8.8,0,0,1,.8-.8H6V6A.8.8,0,0,0,7.6,6V5.2h4.8V6A.8.8,0,1,0,14,6V5.2h1.6a.8.8,0,0,1,.8.8Z" transform="translate(-2 -2)"></path>
    </symbol>
    <symbol xmlns="http://www.w3.org/2000/svg" viewBox="0 0 12.8 16" id="location">
        <path d="M10.4,2A6.4,6.4,0,0,0,4,8.4c0,4.32,5.64,9.2,5.88,9.408a.8.8,0,0,0,1.04,0C11.2,17.6,16.8,12.72,16.8,8.4A6.4,6.4,0,0,0,10.4,2Zm0,14.12c-1.7-1.6-4.8-5.048-4.8-7.72a4.8,4.8,0,1,1,9.6,0C15.2,11.072,12.1,14.528,10.4,16.12Zm0-10.92a3.2,3.2,0,1,0,3.2,3.2A3.2,3.2,0,0,0,10.4,5.2Zm0,4.8A1.6,1.6,0,1,1,12,8.4,1.6,1.6,0,0,1,10.4,10Z" transform="translate(-4 -2)"></path>
    </symbol>
    <symbol xmlns="http://www.w3.org/2000/svg" viewBox="0 0 16.02 13.095" id="open-folder">
        <path d="M16.845,8.362a.728.728,0,0,0-.567-.269H14.823V7.365A2.183,2.183,0,0,0,12.64,5.183H8.072l-.233-.728A2.183,2.183,0,0,0,5.773,3H3.183A2.183,2.183,0,0,0,1,5.183v8.73A2.183,2.183,0,0,0,3.183,16.1H13.659a2.183,2.183,0,0,0,2.124-1.71L17.006,8.98a.728.728,0,0,0-.16-.618ZM4.179,14.073a.728.728,0,0,1-.728.567H3.183a.728.728,0,0,1-.728-.728V5.183a.728.728,0,0,1,.728-.728h2.59A.728.728,0,0,1,6.5,4.95l.393,1.193a.728.728,0,0,0,.655.495H12.64a.728.728,0,0,1,.728.728v.728H6.093a.728.728,0,0,0-.728.567Zm10.185,0a.728.728,0,0,1-.728.567H5.518a1.033,1.033,0,0,0,.08-.255L6.675,9.548H15.4Z" transform="translate(-1 -3)"></path>
    </symbol>
    <symbol xmlns="http://www.w3.org/2000/svg" viewBox="0 0 16 13.6" id="page-collection">
        <path d="M2.4,9.145,9.6,13.3a.8.8,0,0,0,.8,0l7.2-4.158a.8.8,0,0,0,0-1.383L10.4,3.6a.8.8,0,0,0-.8,0L2.4,7.761a.8.8,0,0,0,0,1.383ZM10,5.218l5.6,3.2L10,11.655,4.4,8.449Zm6.8,6.229L10,15.374,3.2,11.447a.8.8,0,1,0-.8,1.383l7.2,4.158a.8.8,0,0,0,.8,0l7.2-4.158a.8.8,0,1,0-.8-1.383Z" transform="translate(-1.995 -3.496)"></path>
    </symbol>
    <symbol xmlns="http://www.w3.org/2000/svg" viewBox="0 0 14.4 16" id="reader">
        <path d="M16.744,8.552A9.52,9.52,0,0,0,15,8.4a5.128,5.128,0,0,0-.992.064,4.728,4.728,0,0,0-1.528-1.32,3.048,3.048,0,0,0,.8-2.056,3.088,3.088,0,1,0-6.176,0,3.048,3.048,0,0,0,.8,2.056A4.888,4.888,0,0,0,6.376,8.456,5.571,5.571,0,0,0,5.4,8.4a9.52,9.52,0,0,0-1.744.168.8.8,0,0,0-.656.8v6.6a.805.805,0,0,0,.944.792A7.8,7.8,0,0,1,5.4,16.584a7.912,7.912,0,0,1,4.36,1.3h0l.1.04h0A.872.872,0,0,0,10.2,18a.7.7,0,0,0,.224-.04h.056l.1-.04h0A7.912,7.912,0,0,1,15,16.584a7.8,7.8,0,0,1,1.456.144.805.805,0,0,0,.944-.792v-6.6A.8.8,0,0,0,16.744,8.552ZM10.2,3.6a1.488,1.488,0,0,1,0,2.968h0a1.488,1.488,0,0,1,0-2.968ZM9.4,15.864a9.536,9.536,0,0,0-4-.88,5.414,5.414,0,0,0-.8.04V10a7.7,7.7,0,0,1,2.016.04H6.7a8,8,0,0,1,2.7,1.024Zm.8-6.184a9.416,9.416,0,0,0-1.1-.544H9.048c-.264-.1-.528-.208-.8-.288a3.2,3.2,0,0,1,1.952-.7h0a3.2,3.2,0,0,1,1.952.68A9.944,9.944,0,0,0,10.2,9.68Zm5.6,5.344a9.28,9.28,0,0,0-4.8.8v-4.8a7.808,7.808,0,0,1,2.7-.976h.16A7.512,7.512,0,0,1,15.8,10Z" transform="translate(-3 -2)"></path>
    </symbol>
    <symbol xmlns="http://www.w3.org/2000/svg" viewBox="0 0 16 16.003" id="setting">
        <path d="M16.549,10.528a.79.79,0,0,1,0-1.056L17.592,8.32a.789.789,0,0,0,.1-.936L16.061,4.616a.82.82,0,0,0-.871-.384l-1.531.3a.816.816,0,0,1-.936-.528l-.5-1.464A.813.813,0,0,0,11.452,2H8.195a.814.814,0,0,0-.814.544L6.924,4.008a.816.816,0,0,1-.936.528l-1.572-.3a.819.819,0,0,0-.814.384L1.973,7.384a.789.789,0,0,0,.081.936L3.089,9.472a.79.79,0,0,1,0,1.056L2.055,11.68a.789.789,0,0,0-.081.936L3.6,15.384a.82.82,0,0,0,.871.384L6,15.464a.816.816,0,0,1,.936.528l.5,1.464A.814.814,0,0,0,8.252,18h3.257a.813.813,0,0,0,.774-.544l.5-1.464a.816.816,0,0,1,.936-.528l1.531.3a.82.82,0,0,0,.871-.384l1.629-2.768a.789.789,0,0,0-.1-.936ZM15.336,11.6l.651.72L14.945,14.1l-.961-.192a2.448,2.448,0,0,0-2.809,1.6l-.309.9H8.781l-.293-.912a2.448,2.448,0,0,0-2.809-1.6l-.961.192L3.659,12.312l.651-.72a2.369,2.369,0,0,0,0-3.2l-.651-.72L4.7,5.912l.961.192A2.448,2.448,0,0,0,8.471,4.5l.309-.9h2.085l.309.912a2.448,2.448,0,0,0,2.809,1.6l.961-.192L15.987,7.7l-.651.72a2.369,2.369,0,0,0,0,3.184ZM9.823,6.8A3.2,3.2,0,1,0,13.08,10,3.229,3.229,0,0,0,9.823,6.8Zm0,4.8A1.6,1.6,0,1,1,11.452,10,1.615,1.615,0,0,1,9.823,11.6Z" transform="translate(-1.857 -1.999)"></path>
    </symbol>
    <symbol xmlns="http://www.w3.org/2000/svg" viewBox="0 0 16 16.003" id="credit-card">
        <path d="M6,13H8.4a.8.8,0,0,0,0-1.6H6A.8.8,0,1,0,6,13Zm9.6-8H4.4A2.4,2.4,0,0,0,2,7.4v7.2A2.4,2.4,0,0,0,4.4,17H15.6A2.4,2.4,0,0,0,18,14.6V7.4A2.4,2.4,0,0,0,15.6,5Zm.8,9.6a.8.8,0,0,1-.8.8H4.4a.8.8,0,0,1-.8-.8V9.8H16.4Zm0-6.4H3.6V7.4a.8.8,0,0,1,.8-.8H15.6a.8.8,0,0,1,.8.8Z" transform="translate(-2 -5)" />
    </symbol>
    <symbol xmlns="http://www.w3.org/2000/svg" viewBox="0 0 16 16.003" id="folder">
        <path d="M4.667,14a1.956,1.956,0,0,1-2-1.909H2a1.956,1.956,0,0,1-2-1.909V1.909A1.956,1.956,0,0,1,2,0H5.04A2,2,0,0,1,6.934,1.273l.213.636h.56A2,2,0,0,1,9.6,3.182l.214.636H14a1.956,1.956,0,0,1,2,1.909v6.364A1.956,1.956,0,0,1,14,14ZM4,3.818v8.272a.652.652,0,0,0,.667.636H14a.652.652,0,0,0,.667-.636V5.727A.652.652,0,0,0,14,5.091H9.334A.665.665,0,0,1,8.7,4.658L8.34,3.614a.665.665,0,0,0-.634-.432H4.667A.652.652,0,0,0,4,3.818ZM1.333,1.909v8.273A.652.652,0,0,0,2,10.818h.667v-7a1.957,1.957,0,0,1,2-1.909H5.744l-.07-.2a.665.665,0,0,0-.634-.433H2A.652.652,0,0,0,1.333,1.909Z" transform="translate(0 0)" />
    </symbol>
    <symbol xmlns="http://www.w3.org/2000/svg" viewBox="0 0 16 16.003" id="arrow">
        <path d="M14.53,9.1a.759.759,0,0,0-1.07,0l-2.724,2.687L8.049,9.1a.759.759,0,1,0-1.07,1.078L10.2,13.4a.759.759,0,0,0,1.078,0l3.256-3.218a.759.759,0,0,0,0-1.078Z" transform="translate(13.62 -6.754) rotate(90)" fill="#2d367d" />
    </symbol>
    <symbol xmlns="http://www.w3.org/2000/svg" viewBox="0 0 16 16.003" id="chat-info">
        <path d="M9.983,9.19a.8.8,0,0,0-.8.8v2.4a.8.8,0,1,0,1.6,0v-2.4A.8.8,0,0,0,9.983,9.19Zm0-2.4a.8.8,0,1,0,.8.8A.8.8,0,0,0,9.983,6.793ZM9.983,2A7.989,7.989,0,0,0,1.994,9.989,7.9,7.9,0,0,0,3.8,15.046l-1.6,1.6a.779.779,0,0,0,.591,1.334h7.19A7.989,7.989,0,1,0,9.983,2Zm0,14.38H4.718l.743-.743a.782.782,0,0,0,0-1.126A6.391,6.391,0,1,1,9.983,16.38Z" transform="translate(-1.972 -2)" />
    </symbol>
    <symbol xmlns="http://www.w3.org/2000/svg" viewBox="0 0 16 16.003" id="notification">
        <g transform="translate(-236.276 -59.991)">
            <path d="M27.814,28.585a2.231,2.231,0,0,1-2.225-2.21.55.55,0,0,1,1.1,0,1.126,1.126,0,0,0,2.252,0,.55.55,0,0,1,1.1,0,2.231,2.231,0,0,1-2.225,2.21ZM33.6,24.179h-.338V20.17a5.477,5.477,0,0,0-3.6-5.126v-.673a1.9,1.9,0,0,0-3.757,0v.673a5.478,5.478,0,0,0-3.6,5.126v4.01H21.97a.547.547,0,1,0,0,1.094H33.606a.547.547,0,1,0,0-1.094Zm-10.189,0V20.17a4.377,4.377,0,0,1,8.754,0v4.01Zm3.6-9.808c0-.3.358-.552.782-.552s.782.253.782.552v.4a5.425,5.425,0,0,0-1.564,0Z" transform="translate(215.003 47.415)" fill="#232227" stroke="#232227" stroke-width="0.3" />
            <circle cx="4" cy="4" r="4" transform="translate(244 60)" fill="#3848e9" />
        </g>
    </symbol>
    <symbol xmlns="http://www.w3.org/2000/svg" viewBox="0 0 16 16.003" id="menu">
        <path d="M11.778,6.556A1.778,1.778,0,1,0,10,4.778,1.778,1.778,0,0,0,11.778,6.556Zm0,8.889a1.778,1.778,0,1,0,1.778,1.778A1.778,1.778,0,0,0,11.778,15.444Zm0-6.222A1.778,1.778,0,1,0,13.556,11,1.778,1.778,0,0,0,11.778,9.222Z" transform="translate(-10 -3)" fill="#828284" />
    </symbol>
    <symbol xmlns="http://www.w3.org/2000/svg" viewBox="0 0 8.064 10.081" id="location-secondary">
        <path id="location-1214139" d="M8.032,2A4.032,4.032,0,0,0,4,6.032c0,2.722,3.553,5.8,3.7,5.927a.5.5,0,0,0,.655,0c.176-.131,3.7-3.206,3.7-5.927A4.032,4.032,0,0,0,8.032,2Zm0,8.9C6.959,9.888,5.008,7.716,5.008,6.032a3.024,3.024,0,0,1,6.048,0C11.056,7.716,9.106,9.893,8.032,10.9Zm0-6.88a2.016,2.016,0,1,0,2.016,2.016A2.016,2.016,0,0,0,8.032,4.016Zm0,3.024A1.008,1.008,0,1,1,9.04,6.032,1.008,1.008,0,0,1,8.032,7.04Z" transform="translate(-4 -2)" fill="#828284" />
    </symbol>
    <symbol xmlns="http://www.w3.org/2000/svg" viewBox="0 0 10.515 10.515" id="phone-secondary">
        <path id="Path_700" data-name="Path 700" d="M11.956,10a1.272,1.272,0,0,1,1,.629l.03.042,1.034,1.49a1.053,1.053,0,0,1-.051,1.4l-.026.027-.389.394a.242.242,0,0,0-.056.333,7.2,7.2,0,0,0,.889,1.058l.1.1A9.492,9.492,0,0,0,15.7,16.513a.23.23,0,0,0,.314-.034l.018-.018.394-.394a1.05,1.05,0,0,1,1.4-.091l.029.019,1.49,1.034a1.287,1.287,0,0,1,.671,1.029,1.491,1.491,0,0,1-.416.964l-.035.04c-.036.041-.077.087-.118.128a2.409,2.409,0,0,1-2,.824,7.547,7.547,0,0,1-4.89-2.555A7.531,7.531,0,0,1,10,12.56a2.418,2.418,0,0,1,.824-2l.128-.113a1.5,1.5,0,0,1,1-.451Zm0,.876a.738.738,0,0,0-.466.2c-.036.026-.061.051-.1.082a1.833,1.833,0,0,0-.609,1.4c-.026,1.306,1.024,3.036,2.36,4.367s3,2.325,4.306,2.3a1.832,1.832,0,0,0,1.4-.6l.082-.1a.738.738,0,0,0,.2-.466.425.425,0,0,0-.184-.366l-.026-.018-1.49-.993a.365.365,0,0,0-.478.028l-.019.018-.451.451a.813.813,0,0,1-1.126.072,14.777,14.777,0,0,1-1.408-1.244,13.558,13.558,0,0,1-1.193-1.357.81.81,0,0,1,.047-1.1l.025-.025.451-.451a.358.358,0,0,0,.053-.478l-.012-.019-.993-1.49a.422.422,0,0,0-.379-.21Z" transform="translate(-9.75 -9.75)" fill="#828284" stroke="#828284" stroke-width="0.5" />
    </symbol>
    <symbol xmlns="http://www.w3.org/2000/svg" viewBox="0 0 10.019 10.019" id="note-secondary">
        <path id="chat-bubble-1213942" d="M9.514,4.5H4.5a.5.5,0,0,0,0,1H9.514a.5.5,0,0,0,0-1Zm0,2H4.5a.5.5,0,0,0,0,1H9.514a.5.5,0,1,0,0-1Zm1-4.508H3.5A1.5,1.5,0,0,0,2,3.5V8.512a1.5,1.5,0,0,0,1.5,1.5H9.309l1.853,1.858a.5.5,0,0,0,.356.145.421.421,0,0,0,.19-.04.5.5,0,0,0,.311-.461V3.5A1.5,1.5,0,0,0,10.516,2Zm.5,8.31L9.87,9.158a.5.5,0,0,0-.356-.145H3.5a.5.5,0,0,1-.5-.5V3.5A.5.5,0,0,1,3.5,3h7.013a.5.5,0,0,1,.5.5Z" transform="translate(-2 -2)" fill="#828284" />
    </symbol>
    <symbol xmlns="http://www.w3.org/2000/svg" viewBox="0 0 10.019 10.019" id="noun-arrows">
        <g transform="translate(8.547 6.944) rotate(-180)"><g transform="translate(0 0)"><path d="M8.4,5.078,5.259.631a1.068,1.068,0,0,0-1.949,0L.152,5.078a1.244,1.244,0,0,0,.985,1.865H2.49c.027.008,3.575-.027,3.569,0H7.413A1.257,1.257,0,0,0,8.4,5.078Z" fill="#828284"/></g></g>
    </symbol>
    <symbol xmlns="http://www.w3.org/2000/svg" viewBox="0 0 16 16" id="search-secondary">
        <path id="search" d="M15.153,16a.841.841,0,0,1-.6-.248L10.962,12.16l-.036-.038a6.8,6.8,0,0,1-4.156,1.423A6.773,6.773,0,0,1,1.98,1.983a6.774,6.774,0,0,1,10.141,8.944l.025.023.013.013,3.593,3.592a.847.847,0,0,1-.6,1.445ZM6.735,1.684a5.053,5.053,0,1,0,3.574,1.48A5.02,5.02,0,0,0,6.735,1.684Z" fill="#828284"/>
    </symbol>
    <symbol xmlns="http://www.w3.org/2000/svg" viewBox="0 0 8.023 10.028" id="document">
        <path id="document-1214244" d="M12.023,5.48a.657.657,0,0,0-.03-.135V5.3a.537.537,0,0,0-.1-.14h0L8.889,2.15h0a.537.537,0,0,0-.14-.1H8.7A.441.441,0,0,0,8.538,2H5.5A1.5,1.5,0,0,0,4,3.5v7.02a1.5,1.5,0,0,0,1.5,1.5h5.014a1.5,1.5,0,0,0,1.5-1.5V5.48ZM9.014,3.71l1.3,1.3h-.8a.5.5,0,0,1-.5-.5Zm2.006,6.814a.5.5,0,0,1-.5.5H5.5a.5.5,0,0,1-.5-.5V3.5A.5.5,0,0,1,5.5,3H8.011v1.5a1.5,1.5,0,0,0,1.5,1.5h1.5Z" transform="translate(-4 -2)"/>
    </symbol>
    <symbol xmlns="http://www.w3.org/2000/svg" viewBox="0 0 10.052 9.549" id="medical-folder">
        <path id="medical-folder-1214217" d="M10.544,4.008H7.388l-.161-.5A1.508,1.508,0,0,0,5.8,2.5H3.508A1.508,1.508,0,0,0,2,4.008v6.534a1.508,1.508,0,0,0,1.508,1.508h7.036a1.508,1.508,0,0,0,1.508-1.508V5.516A1.508,1.508,0,0,0,10.544,4.008Zm.5,6.534a.5.5,0,0,1-.5.5H3.508a.5.5,0,0,1-.5-.5V4.008a.5.5,0,0,1,.5-.5H5.8a.5.5,0,0,1,.477.342l.271.824a.5.5,0,0,0,.477.342h3.518a.5.5,0,0,1,.5.5Z" transform="translate(-2 -2.5)" fill="#232227"/>
    </symbol>
    <symbol xmlns="http://www.w3.org/2000/svg" viewBox="0 0 16 15.2" id="add-folder">
        <path id="medical-folder-1214217" d="M11.6,10.5h-.8V9.7a.8.8,0,1,0-1.6,0v.8H8.4a.8.8,0,0,0,0,1.6h.8v.8a.8.8,0,1,0,1.6,0v-.8h.8a.8.8,0,0,0,0-1.6Zm4-5.6H10.576l-.256-.8A2.4,2.4,0,0,0,8.048,2.5H4.4A2.4,2.4,0,0,0,2,4.9V15.3a2.4,2.4,0,0,0,2.4,2.4H15.6A2.4,2.4,0,0,0,18,15.3v-8A2.4,2.4,0,0,0,15.6,4.9Zm.8,10.4a.8.8,0,0,1-.8.8H4.4a.8.8,0,0,1-.8-.8V4.9a.8.8,0,0,1,.8-.8H8.048a.8.8,0,0,1,.76.544L9.24,5.956A.8.8,0,0,0,10,6.5h5.6a.8.8,0,0,1,.8.8Z" transform="translate(-2 -2.5)" fill="#828284"/>
    </symbol>
    <symbol xmlns="http://www.w3.org/2000/svg" width="10" height="10" viewBox="0 0 10 10.003" id="edit-secondary">
        <path id="edit-1214336" d="M3.5,10H5.62a.5.5,0,0,0,.355-.145l3.46-3.465h0L10.855,5a.5.5,0,0,0,0-.71L8.735,2.142a.5.5,0,0,0-.71,0L6.615,3.557h0L3.145,7.022A.5.5,0,0,0,3,7.377V9.5A.5.5,0,0,0,3.5,10ZM8.38,3.2,9.8,4.617l-.71.71L7.67,3.912ZM4,7.582,6.965,4.617,8.38,6.032,5.415,9H4ZM11.5,11h-9a.5.5,0,0,0,0,1h9a.5.5,0,0,0,0-1Z" transform="translate(-2 -1.994)"/>
    </symbol>
    <symbol xmlns="http://www.w3.org/2000/svg" width="9.348" height="7.946" viewBox="0 0 9.348 7.946" id="page-collection-secondary">
        <path id="page-collection-1218384" d="M2.231,6.8l4.2,2.429a.467.467,0,0,0,.467,0l4.2-2.429a.467.467,0,0,0,0-.808L6.9,3.559a.467.467,0,0,0-.467,0l-4.2,2.429a.467.467,0,0,0,0,.808ZM6.669,4.5,9.94,6.371,6.669,8.263,3.4,6.39Zm3.971,3.639L6.669,10.436,2.7,8.142a.467.467,0,1,0-.467.808l4.2,2.429a.467.467,0,0,0,.467,0l4.2-2.429a.467.467,0,1,0-.467-.808Z" transform="translate(-1.995 -3.496)"/>
    </symbol>
    <symbol xmlns="http://www.w3.org/2000/svg" width="9.072" height="10.08" viewBox="0 0 9.072 10.08" id="documents-secondary">
        <path id="documents-1214237" d="M9.552,11.072H5.52A1.512,1.512,0,0,1,4.008,9.56V4.52A.5.5,0,0,0,3,4.52V9.56a2.52,2.52,0,0,0,2.52,2.52H9.552a.5.5,0,0,0,0-1.008ZM12.072,5.5a.66.66,0,0,0-.03-.136V5.316a.539.539,0,0,0-.1-.141h0L8.922,2.151h0a.539.539,0,0,0-.141-.1H8.735L8.574,2H6.528A1.512,1.512,0,0,0,5.016,3.512v5.04a1.512,1.512,0,0,0,1.512,1.512H10.56a1.512,1.512,0,0,0,1.512-1.512V5.5ZM9.048,3.719l1.305,1.305h-.8a.5.5,0,0,1-.5-.5Zm2.016,4.833a.5.5,0,0,1-.5.5H6.528a.5.5,0,0,1-.5-.5V3.512a.5.5,0,0,1,.5-.5H8.04V4.52A1.512,1.512,0,0,0,9.552,6.032h1.512Z" transform="translate(-3 -2)"/>
    </symbol>
</svg>